<svg width="75" height="75" viewBox="0 0 75 75" fill="none" xmlns="http://www.w3.org/2000/svg">
<mask id="path-1-inside-1_258_2" fill="white">
<path fill-rule="evenodd" clip-rule="evenodd" d="M31.4668 0C33.0314 15.2243 45.1328 27.3254 60.3571 28.8897V29.2322C44.3948 30.8723 31.8655 44.0956 31.3144 60.3571H31.2771C30.7005 43.3441 17.013 29.6565 0 29.0799V29.0421C16.2612 28.4909 29.4842 15.962 31.1247 0H31.4668Z"/>
</mask>
<path fill-rule="evenodd" clip-rule="evenodd" d="M31.4668 0C33.0314 15.2243 45.1328 27.3254 60.3571 28.8897V29.2322C44.3948 30.8723 31.8655 44.0956 31.3144 60.3571H31.2771C30.7005 43.3441 17.013 29.6565 0 29.0799V29.0421C16.2612 28.4909 29.4842 15.962 31.1247 0H31.4668Z" fill="white"/>
<path d="M60.3571 28.8897H61.3571V27.9872L60.4594 27.895L60.3571 28.8897ZM31.4668 0L32.4616 -0.102232L32.3693 -1H31.4668V0ZM60.3571 29.2322L60.4594 30.2269L61.3571 30.1347V29.2322H60.3571ZM31.3144 60.3571V61.3571H32.2811L32.3138 60.391L31.3144 60.3571ZM31.2771 60.3571L30.2776 60.391L30.3104 61.3571H31.2771V60.3571ZM0 29.0799H-1V30.0465L-0.0338764 30.0793L0 29.0799ZM0 29.0421L-0.0338765 28.0426L-1 28.0754V29.0421H0ZM31.1247 0V-1H30.2222L30.1299 -0.102231L31.1247 0ZM60.4594 27.895C45.7064 26.3791 33.9777 14.6506 32.4616 -0.102232L30.4721 0.102232C32.0851 15.7979 44.5591 28.2718 60.2549 29.8845L60.4594 27.895ZM61.3571 29.2322V28.8897H59.3571V29.2322H61.3571ZM32.3138 60.391C32.8479 44.6325 44.9907 31.8163 60.4594 30.2269L60.2549 28.2374C43.7988 29.9283 30.8831 43.5588 30.315 60.3233L32.3138 60.391ZM31.2771 61.3571H31.3144V59.3571H31.2771V61.3571ZM-0.0338764 30.0793C16.4534 30.6381 29.7189 43.9037 30.2776 60.391L32.2765 60.3233C31.6821 42.7845 17.5726 28.6749 0.0338764 28.0804L-0.0338764 30.0793ZM-1 29.0421V29.0799H1V29.0421H-1ZM30.1299 -0.102231C28.5402 15.3661 15.7243 27.5085 -0.0338765 28.0426L0.0338765 30.0415C16.798 29.4733 30.4283 16.5579 32.1194 0.102231L30.1299 -0.102231ZM31.4668 -1H31.1247V1H31.4668V-1Z" fill="black" mask="url(#path-1-inside-1_258_2)"/>
<mask id="path-3-inside-2_258_2" fill="white">
<path fill-rule="evenodd" clip-rule="evenodd" d="M59.3174 43H59.4968C60.3171 50.9815 66.6613 57.3256 74.6429 58.1457V58.3253C66.2744 59.1851 59.7058 66.1176 59.4169 74.6429H59.3973C59.0951 65.7236 51.9193 58.5477 43 58.2454V58.2256C51.5251 57.9366 58.4574 51.3682 59.3174 43Z"/>
</mask>
<path fill-rule="evenodd" clip-rule="evenodd" d="M59.3174 43H59.4968C60.3171 50.9815 66.6613 57.3256 74.6429 58.1457V58.3253C66.2744 59.1851 59.7058 66.1176 59.4169 74.6429H59.3973C59.0951 65.7236 51.9193 58.5477 43 58.2454V58.2256C51.5251 57.9366 58.4574 51.3682 59.3174 43Z" fill="white"/>
<path d="M59.4968 43L60.4916 42.8978L60.3993 42H59.4968V43ZM59.3174 43V42H58.4149L58.3227 42.8978L59.3174 43ZM74.6429 58.1457H75.6429V57.2432L74.7451 57.151L74.6429 58.1457ZM74.6429 58.3253L74.7451 59.32L75.6429 59.2278V58.3253H74.6429ZM59.4169 74.6429V75.6429H60.3836L60.4163 74.6767L59.4169 74.6429ZM59.3973 74.6429L58.3979 74.6767L58.4306 75.6429H59.3973V74.6429ZM43 58.2454H42V59.2121L42.9661 59.2448L43 58.2454ZM43 58.2256L42.9661 57.2262L42 57.2589V58.2256H43ZM59.4968 42H59.3174V44H59.4968V42ZM74.7451 57.151C67.235 56.3793 61.2634 50.4078 60.4916 42.8978L58.5021 43.1022C59.3708 51.5551 66.0877 58.2719 74.5406 59.1405L74.7451 57.151ZM75.6429 58.3253V58.1457H73.6429V58.3253H75.6429ZM60.4163 74.6767C60.6882 66.6544 66.8704 60.1292 74.7451 59.32L74.5406 57.3305C65.6785 58.2411 58.7234 65.5808 58.4175 74.609L60.4163 74.6767ZM59.3973 75.6429H59.4169V73.6429H59.3973V75.6429ZM42.9661 59.2448C51.3597 59.5293 58.1135 66.2832 58.3979 74.6767L60.3968 74.609C60.0767 65.164 52.4788 57.5661 43.0339 57.246L42.9661 59.2448ZM42 58.2256V58.2454H44V58.2256H42ZM58.3227 42.8978C57.5134 50.7723 50.9883 56.9542 42.9661 57.2262L43.0339 59.225C52.0619 58.919 59.4014 51.9642 60.3122 43.1022L58.3227 42.8978Z" fill="black" mask="url(#path-3-inside-2_258_2)"/>
</svg>
