<svg width="137" height="130" viewBox="0 0 137 130" fill="none" xmlns="http://www.w3.org/2000/svg">
<mask id="path-1-inside-1_143_105" fill="white">
<path fill-rule="evenodd" clip-rule="evenodd" d="M54.1209 90.5356H54.3844C55.588 100.49 64.8964 108.402 76.6072 109.425V109.649C64.3287 110.722 54.6911 119.368 54.2672 130H54.2381C53.7946 118.876 43.2657 109.926 30.1786 109.549V109.525C42.6872 109.164 52.8589 100.972 54.1209 90.5356Z"/>
</mask>
<path fill-rule="evenodd" clip-rule="evenodd" d="M54.1209 90.5356H54.3844C55.588 100.49 64.8964 108.402 76.6072 109.425V109.649C64.3287 110.722 54.6911 119.368 54.2672 130H54.2381C53.7946 118.876 43.2657 109.926 30.1786 109.549V109.525C42.6872 109.164 52.8589 100.972 54.1209 90.5356Z" fill="white"/>
<path d="M54.3844 90.5356L55.3772 90.4156L55.2708 89.5356H54.3844V90.5356ZM54.1209 90.5356V89.5356H53.2345L53.1281 90.4156L54.1209 90.5356ZM76.6072 109.425H77.6072V108.508L76.6942 108.429L76.6072 109.425ZM76.6072 109.649L76.6942 110.645L77.6072 110.565V109.649H76.6072ZM54.2672 130V131H55.2281L55.2664 130.04L54.2672 130ZM54.2381 130L53.2389 130.04L53.2772 131H54.2381V130ZM30.1786 109.549H29.1786V110.521L30.1498 110.549L30.1786 109.549ZM30.1786 109.525L30.1498 108.525L29.1786 108.553V109.525H30.1786ZM54.3844 89.5356H54.1209V91.5356H54.3844V89.5356ZM76.6942 108.429C65.3403 107.437 56.5113 99.795 55.3772 90.4156L53.3917 90.6557C54.6648 101.184 64.4526 109.367 76.5201 110.421L76.6942 108.429ZM77.6072 109.649V109.425H75.6072V109.649H77.6072ZM55.2664 130.04C55.6653 120.034 64.7836 111.686 76.6942 110.645L76.5201 108.653C63.8737 109.758 53.7168 118.702 53.268 129.96L55.2664 130.04ZM54.2381 131H54.2672V129H54.2381V131ZM30.1498 110.549C42.8543 110.915 52.8216 119.573 53.2389 130.04L55.2373 129.96C54.7677 118.179 43.677 108.938 30.2074 108.55L30.1498 110.549ZM29.1786 109.525V109.549H31.1786V109.525H29.1786ZM53.1281 90.4156C51.9391 100.249 42.2858 108.175 30.1498 108.525L30.2074 110.524C43.0887 110.153 53.7787 101.696 55.1136 90.6557L53.1281 90.4156Z" fill="black" mask="url(#path-1-inside-1_143_105)"/>
<mask id="path-3-inside-2_143_105" fill="white">
<path fill-rule="evenodd" clip-rule="evenodd" d="M108.074 30.1786C109.639 45.4029 121.74 57.504 136.964 59.0683V59.4108C121.002 61.0509 108.473 74.2742 107.922 90.5357H107.884C107.308 73.5227 93.6202 59.8351 76.6072 59.2584V59.2206C92.8683 58.6695 106.091 46.1406 107.732 30.1786H108.074Z"/>
</mask>
<path fill-rule="evenodd" clip-rule="evenodd" d="M108.074 30.1786C109.639 45.4029 121.74 57.504 136.964 59.0683V59.4108C121.002 61.0509 108.473 74.2742 107.922 90.5357H107.884C107.308 73.5227 93.6202 59.8351 76.6072 59.2584V59.2206C92.8683 58.6695 106.091 46.1406 107.732 30.1786H108.074Z" fill="white"/>
<path d="M136.964 59.0683H137.964V58.1658L137.067 58.0736L136.964 59.0683ZM108.074 30.1786L109.069 30.0764L108.977 29.1786H108.074V30.1786ZM136.964 59.4108L137.067 60.4055L137.964 60.3133V59.4108H136.964ZM107.922 90.5357V91.5357H108.888L108.921 90.5696L107.922 90.5357ZM107.884 90.5357L106.885 90.5696L106.918 91.5357H107.884V90.5357ZM76.6072 59.2584H75.6072V60.2251L76.5733 60.2579L76.6072 59.2584ZM76.6072 59.2206L76.5733 58.2212L75.6072 58.254V59.2206H76.6072ZM107.732 30.1786V29.1786H106.829L106.737 30.0764L107.732 30.1786ZM137.067 58.0736C122.314 56.5577 110.585 44.8292 109.069 30.0764L107.079 30.2808C108.692 45.9765 121.166 58.4503 136.862 60.0631L137.067 58.0736ZM137.964 59.4108V59.0683H135.964V59.4108H137.964ZM108.921 90.5696C109.455 74.8111 121.598 61.9949 137.067 60.4055L136.862 58.416C120.406 60.1069 107.49 73.7374 106.922 90.5019L108.921 90.5696ZM107.884 91.5357H107.922V89.5357H107.884V91.5357ZM76.5733 60.2579C93.0606 60.8167 106.326 74.0822 106.885 90.5696L108.884 90.5019C108.289 72.9631 94.1798 58.8535 76.6411 58.259L76.5733 60.2579ZM75.6072 59.2206V59.2584H77.6072V59.2206H75.6072ZM106.737 30.0764C105.147 45.5446 92.3315 57.6871 76.5733 58.2212L76.6411 60.2201C93.4052 59.6518 107.035 46.7365 108.727 30.2808L106.737 30.0764ZM108.074 29.1786H107.732V31.1786H108.074V29.1786Z" fill="black" mask="url(#path-3-inside-2_143_105)"/>
<mask id="path-5-inside-3_143_105" fill="white">
<path fill-rule="evenodd" clip-rule="evenodd" d="M31.4668 0C33.0314 15.2243 45.1328 27.3254 60.3571 28.8897V29.2322C44.3948 30.8723 31.8655 44.0956 31.3144 60.3571H31.2771C30.7005 43.3441 17.013 29.6565 0 29.0799V29.0421C16.2612 28.4909 29.4842 15.962 31.1247 0H31.4668Z"/>
</mask>
<path fill-rule="evenodd" clip-rule="evenodd" d="M31.4668 0C33.0314 15.2243 45.1328 27.3254 60.3571 28.8897V29.2322C44.3948 30.8723 31.8655 44.0956 31.3144 60.3571H31.2771C30.7005 43.3441 17.013 29.6565 0 29.0799V29.0421C16.2612 28.4909 29.4842 15.962 31.1247 0H31.4668Z" fill="white"/>
<path d="M60.3571 28.8897H61.3571V27.9872L60.4594 27.895L60.3571 28.8897ZM31.4668 0L32.4616 -0.102232L32.3693 -1H31.4668V0ZM60.3571 29.2322L60.4594 30.2269L61.3571 30.1347V29.2322H60.3571ZM31.3144 60.3571V61.3571H32.2811L32.3138 60.391L31.3144 60.3571ZM31.2771 60.3571L30.2776 60.391L30.3104 61.3571H31.2771V60.3571ZM0 29.0799H-1V30.0465L-0.0338764 30.0793L0 29.0799ZM0 29.0421L-0.0338765 28.0426L-1 28.0754V29.0421H0ZM31.1247 0V-1H30.2222L30.1299 -0.102231L31.1247 0ZM60.4594 27.895C45.7064 26.3791 33.9777 14.6506 32.4616 -0.102232L30.4721 0.102232C32.0851 15.7979 44.5591 28.2718 60.2549 29.8845L60.4594 27.895ZM61.3571 29.2322V28.8897H59.3571V29.2322H61.3571ZM32.3138 60.391C32.8479 44.6325 44.9907 31.8163 60.4594 30.2269L60.2549 28.2374C43.7988 29.9283 30.8831 43.5588 30.315 60.3233L32.3138 60.391ZM31.2771 61.3571H31.3144V59.3571H31.2771V61.3571ZM-0.0338764 30.0793C16.4534 30.6381 29.7189 43.9037 30.2776 60.391L32.2765 60.3233C31.6821 42.7845 17.5726 28.6749 0.0338764 28.0804L-0.0338764 30.0793ZM-1 29.0421V29.0799H1V29.0421H-1ZM30.1299 -0.102231C28.5402 15.3661 15.7243 27.5085 -0.0338765 28.0426L0.0338765 30.0415C16.798 29.4733 30.4283 16.5579 32.1194 0.102231L30.1299 -0.102231ZM31.4668 -1H31.1247V1H31.4668V-1Z" fill="black" mask="url(#path-5-inside-3_143_105)"/>
</svg>
